<svg xmlns="http://www.w3.org/2000/svg" viewBox="0 0 32 32" width="32" height="32">
  <!-- Logo Mark Only - Geometric data visualization symbol - Inverted for light mode -->
  <g transform="translate(4, 4) scale(0.24)">
    <!-- Outer hexagon representing data structure -->
    <polygon 
      points="50,10 80,25 80,55 50,70 20,55 20,25" 
      fill="none" 
      stroke="#1e293b" 
      stroke-width="3"
      opacity="0.8"
    />
    
    <!-- Inner connected nodes representing analytics -->
    <circle cx="35" cy="40" r="3" fill="#1e293b"/>
    <circle cx="50" cy="30" r="3" fill="#334155"/>
    <circle cx="65" cy="40" r="3" fill="#1e293b"/>
    <circle cx="50" cy="50" r="3" fill="#334155"/>
    
    <!-- Connection lines -->
    <line x1="35" y1="40" x2="50" y2="30" stroke="#1e293b" stroke-width="2" opacity="0.6"/>
    <line x1="50" y1="30" x2="65" y2="40" stroke="#1e293b" stroke-width="2" opacity="0.6"/>
    <line x1="65" y1="40" x2="50" y2="50" stroke="#1e293b" stroke-width="2" opacity="0.6"/>
    <line x1="50" y1="50" x2="35" y2="40" stroke="#1e293b" stroke-width="2" opacity="0.6"/>
    
    <!-- Central core -->
    <circle cx="50" cy="40" r="5" fill="#334155"/>
    
    <!-- Data flow indicators -->
    <path 
      d="M 15 20 Q 32 24 50 20" 
      stroke="#1e293b" 
      stroke-width="2" 
      fill="none" 
      opacity="0.4"
    />
    <path 
      d="M 85 60 Q 68 56 50 60" 
      stroke="#1e293b" 
      stroke-width="2" 
      fill="none" 
      opacity="0.4"
    />
  </g>
</svg>